<svg width="61" height="60" viewBox="0 0 61 60" fill="none" xmlns="http://www.w3.org/2000/svg">
<path d="M30.1641 0C13.6041 0 0.164062 13.44 0.164062 30C0.164062 46.56 13.6041 60 30.1641 60C46.7241 60 60.1641 46.56 60.1641 30C60.1641 13.44 46.7241 0 30.1641 0ZM52.5441 21.36L44.2041 24.81C43.453 22.7882 42.2731 20.9529 40.7454 19.4304C39.2177 17.9079 37.3784 16.7342 35.3541 15.99L38.8041 7.65C45.1041 10.05 50.1141 15.06 52.5441 21.36ZM30.1641 39C25.1841 39 21.1641 34.98 21.1641 30C21.1641 25.02 25.1841 21 30.1641 21C35.1441 21 39.1641 25.02 39.1641 30C39.1641 34.98 35.1441 39 30.1641 39ZM21.5541 7.62L25.0641 15.96C23.016 16.7064 21.1552 17.8901 19.6113 19.4289C18.0673 20.9677 16.8773 22.8245 16.1241 24.87L7.78406 21.39C8.98637 18.2581 10.8335 15.4138 13.2057 13.0416C15.5779 10.6694 18.4221 8.8223 21.5541 7.62ZM7.78406 38.61L16.1241 35.16C16.8724 37.2 18.0576 39.0518 19.5967 40.5857C21.1358 42.1196 22.9916 43.2985 25.0341 44.04L21.5241 52.38C18.3996 51.1709 15.5628 49.321 13.1964 46.9495C10.83 44.5779 8.98633 41.7371 7.78406 38.61ZM38.8041 52.38L35.3541 44.04C37.3875 43.2862 39.2324 42.0987 40.7607 40.56C42.289 39.0214 43.464 37.1685 44.2041 35.13L52.5441 38.64C51.3383 41.7616 49.493 44.5965 47.1268 46.9627C44.7606 49.329 41.9256 51.1742 38.8041 52.38Z" fill="black" fill-opacity="0.7"/>
</svg>
