<svg width="59" height="57" viewBox="0 0 59 57" fill="none" xmlns="http://www.w3.org/2000/svg">
<path d="M38.2 36.8V33.9C38.2 32.6 39 31.5 40.2 31.1C38.3 29.7 35.3 28.8 28.9 28.1L26 32.9L22.6 38.4C22.2 39 21.3 39 20.9 38.4L14.7 28.1C7.3 29 0 30.3 0 37.8V49.2H28.3V41.3C28.3 38.8 30.3 36.7 32.9 36.7H38.2V36.8ZM48.7 33.9C48.7 33.4 48.3 33 47.8 33H41.2C40.7 33 40.3 33.4 40.3 33.9V36.8H48.8V33.9H48.7ZM21.8 24.9C28.2 24.9 33.2 17.7 33.2 11.5C33.2 5.2 28.1 0 21.8 0C15.5 0 10.3 5.2 10.3 11.5C10.3 17.7 15.3 24.9 21.8 24.9Z" fill="black" fill-opacity="0.7"/>
<path d="M56.2502 36.6001H33.0502C31.6502 36.6001 30.4502 37.8001 30.4502 39.2001V54.1001C30.4502 55.5001 31.6502 56.7001 33.0502 56.7001H56.2502C57.6502 56.7001 58.8502 55.5001 58.8502 54.1001V39.1001C58.8502 37.7001 57.6502 36.6001 56.2502 36.6001ZM50.6502 43.9001L43.8502 50.7001C43.4502 51.1001 42.8502 51.1001 42.4502 50.7001L38.7502 47.0001C38.3502 46.6001 38.3502 46.0001 38.7502 45.6001C39.1502 45.2001 39.7502 45.2001 40.1502 45.6001L43.1502 48.6001L49.1502 42.6001C49.5502 42.2001 50.1502 42.2001 50.5502 42.6001C50.9502 43.0001 51.0502 43.5001 50.6502 43.9001Z" fill="black" fill-opacity="0.7"/>
</svg>
