<svg width="76" height="76" viewBox="0 0 76 76" fill="none" xmlns="http://www.w3.org/2000/svg">
<rect width="76" height="76" rx="8" fill="#F0F5FF"/>
<path d="M61 13H15C13.8937 13 13 13.8937 13 15V61C13 62.1063 13.8937 63 15 63H61C62.1063 63 63 62.1063 63 61V15C63 13.8937 62.1063 13 61 13ZM31.25 48.6875V53.5C31.25 53.775 31.025 54 30.75 54H27.75C27.475 54 27.25 53.775 27.25 53.5V48.6875C24.6437 47.8375 22.75 45.3875 22.75 42.5C22.75 39.6125 24.6437 37.1562 27.25 36.3125V22.5C27.25 22.225 27.475 22 27.75 22H30.75C31.025 22 31.25 22.225 31.25 22.5V36.3125C33.8563 37.1625 35.75 39.6125 35.75 42.5C35.75 45.3875 33.8563 47.8438 31.25 48.6875ZM48.725 39.6937C48.7375 39.6937 48.7437 39.6875 48.75 39.6875V53.5C48.75 53.775 48.525 54 48.25 54H45.25C44.975 54 44.75 53.775 44.75 53.5V39.6875C44.7625 39.6875 44.7688 39.6937 44.775 39.6937C42.15 38.8562 40.25 36.4 40.25 33.5C40.25 30.6 42.15 28.1437 44.775 27.3062C44.7625 27.3062 44.7563 27.3125 44.75 27.3125V22.5C44.75 22.225 44.975 22 45.25 22H48.25C48.525 22 48.75 22.225 48.75 22.5V27.3125C48.7375 27.3125 48.7312 27.3062 48.725 27.3062C51.35 28.1437 53.25 30.6 53.25 33.5C53.25 36.4 51.35 38.8562 48.725 39.6937ZM44.5 33.5C44.5 34.0967 44.7371 34.669 45.159 35.091C45.581 35.5129 46.1533 35.75 46.75 35.75C47.3467 35.75 47.919 35.5129 48.341 35.091C48.7629 34.669 49 34.0967 49 33.5C49 32.9033 48.7629 32.331 48.341 31.909C47.919 31.4871 47.3467 31.25 46.75 31.25C46.1533 31.25 45.581 31.4871 45.159 31.909C44.7371 32.331 44.5 32.9033 44.5 33.5ZM31.2125 41.4062L31.1187 41.2562C31.1187 41.25 31.1125 41.25 31.1125 41.2438L31.0562 41.1688C31.05 41.1625 31.0438 41.1563 31.0438 41.15C30.9813 41.0688 30.9188 40.9937 30.8438 40.925L30.8312 40.9125C30.8062 40.8875 30.7813 40.8625 30.7563 40.8438C30.7063 40.7937 30.65 40.75 30.5938 40.7125H30.5875L30.5125 40.6562C30.5063 40.65 30.4937 40.6438 30.4875 40.6375C30.4125 40.5875 30.3312 40.5375 30.2437 40.5C30.2312 40.4937 30.2125 40.4875 30.2 40.475C30.175 40.4625 30.1563 40.4562 30.1313 40.4437C30.1125 40.4375 30.0875 40.425 30.0688 40.4188C30.0375 40.4063 30.0063 40.3938 29.975 40.3875C29.95 40.3813 29.9187 40.3687 29.8937 40.3625L29.8375 40.3438L29.75 40.325C29.7375 40.3188 29.7187 40.3188 29.7062 40.3125C29.6625 40.3062 29.6188 40.2937 29.575 40.2875C29.5625 40.2875 29.55 40.2875 29.5375 40.2812C29.5 40.275 29.4687 40.275 29.4312 40.2687C29.4187 40.2687 29.4063 40.2688 29.3875 40.2625C29.3375 40.2625 29.2937 40.2562 29.2437 40.2562C29.1937 40.2562 29.15 40.2563 29.1 40.2625C29.0875 40.2625 29.075 40.2625 29.0562 40.2687C29.0187 40.2687 28.9813 40.275 28.95 40.2812C28.9375 40.2812 28.925 40.2812 28.9125 40.2875C28.8688 40.2937 28.825 40.3 28.7812 40.3125C28.7687 40.3188 28.75 40.3188 28.7375 40.325L28.65 40.3438L28.5938 40.3625C28.5687 40.3687 28.5375 40.3813 28.5125 40.3875C28.4813 40.4 28.45 40.4125 28.4188 40.4188C28.4 40.425 28.375 40.4375 28.3563 40.4437C28.3313 40.4562 28.3125 40.4625 28.2875 40.475C28.275 40.4812 28.2562 40.4875 28.2437 40.5C28.1625 40.5437 28.0812 40.5875 28 40.6375C27.9937 40.6438 27.9813 40.65 27.975 40.6562L27.9 40.7125H27.8937C27.8375 40.7563 27.7813 40.8 27.7313 40.8438C27.7063 40.8688 27.6813 40.8875 27.6562 40.9125L27.6437 40.925C27.5738 40.997 27.5071 41.0721 27.4438 41.15C27.4375 41.1563 27.4312 41.1625 27.4312 41.1688L27.375 41.2438C27.375 41.25 27.3687 41.25 27.3687 41.2562L27.275 41.4062C27.2687 41.4188 27.2625 41.425 27.2563 41.4375C27.0875 41.7562 26.9875 42.1188 26.9875 42.5C26.9875 42.8812 27.0875 43.25 27.2563 43.5625C27.2625 43.575 27.2687 43.5812 27.275 43.5938L27.3687 43.7438C27.3687 43.75 27.375 43.75 27.375 43.7562L27.4312 43.8312C27.4375 43.8375 27.4438 43.8437 27.4438 43.85C27.5063 43.9312 27.5687 44.0063 27.6437 44.075L27.6562 44.0875C27.6813 44.1125 27.7063 44.1375 27.7313 44.1562C27.7813 44.2063 27.8375 44.25 27.8937 44.2875H27.9L27.975 44.3438C27.9813 44.35 27.9937 44.3562 28 44.3625C28.075 44.4125 28.1562 44.4625 28.2437 44.5C28.2562 44.5063 28.275 44.5125 28.2875 44.525C28.3125 44.5375 28.3313 44.5438 28.3563 44.5563C28.375 44.5625 28.4 44.575 28.4188 44.5812C28.45 44.5937 28.4813 44.6062 28.5125 44.6125C28.5375 44.6187 28.5687 44.6313 28.5938 44.6375L28.65 44.6562L28.7375 44.675C28.75 44.6812 28.7687 44.6812 28.7812 44.6875C28.825 44.6938 28.8688 44.7063 28.9125 44.7125C28.925 44.7125 28.9375 44.7125 28.95 44.7188C28.9875 44.725 29.0187 44.725 29.0562 44.7313C29.0687 44.7313 29.0813 44.7312 29.1 44.7375C29.15 44.7375 29.1937 44.7438 29.2437 44.7438C29.2937 44.7438 29.3375 44.7437 29.3875 44.7375C29.4 44.7375 29.4125 44.7375 29.4312 44.7313C29.4687 44.7313 29.5063 44.725 29.5375 44.7188C29.55 44.7188 29.5625 44.7188 29.575 44.7125C29.6188 44.7063 29.6625 44.7 29.7062 44.6875C29.7187 44.6812 29.7375 44.6812 29.75 44.675L29.8375 44.6562L29.8937 44.6375C29.9187 44.6313 29.95 44.6187 29.975 44.6125C30.0063 44.6 30.0375 44.5875 30.0688 44.5812C30.0875 44.575 30.1125 44.5625 30.1313 44.5563C30.1563 44.5438 30.175 44.5375 30.2 44.525C30.2125 44.5188 30.2312 44.5125 30.2437 44.5C30.325 44.4563 30.4062 44.4125 30.4875 44.3625C30.4937 44.3562 30.5063 44.35 30.5125 44.3438L30.5875 44.2875H30.5938C30.65 44.2437 30.7063 44.2 30.7563 44.1562C30.7813 44.1312 30.8062 44.1125 30.8312 44.0875L30.8438 44.075C30.9125 44.0063 30.9813 43.925 31.0438 43.85C31.05 43.8437 31.0562 43.8375 31.0562 43.8312L31.1125 43.7562C31.1125 43.75 31.1187 43.75 31.1187 43.7438L31.2125 43.5938C31.2187 43.5812 31.225 43.575 31.2313 43.5625C31.4 43.2438 31.5 42.8812 31.5 42.5C31.5 42.1188 31.4 41.75 31.2313 41.4375C31.225 41.425 31.2187 41.4125 31.2125 41.4062Z" fill="black" fill-opacity="0.7"/>
</svg>
