<svg width="24" height="24" viewBox="0 0 24 24" fill="none" xmlns="http://www.w3.org/2000/svg">
<path d="M11.1426 6.00182C11.1426 6.19958 11.1928 6.3929 11.287 6.55734C11.3812 6.72177 11.5151 6.84993 11.6717 6.92561C11.8283 7.00129 12.0007 7.02109 12.1669 6.98251C12.3332 6.94393 12.4859 6.8487 12.6058 6.70886C12.7257 6.56902 12.8073 6.39085 12.8404 6.19689C12.8735 6.00293 12.8565 5.80189 12.7916 5.61918C12.7267 5.43647 12.6169 5.28031 12.4759 5.17044C12.335 5.06057 12.1692 5.00193 11.9997 5.00193C11.7724 5.00193 11.5544 5.10727 11.3936 5.29479C11.2329 5.48231 11.1426 5.73663 11.1426 6.00182Z" fill="#6F759F"/>
<path d="M23.5029 6.09185L12.36 0.0924666C12.2472 0.0315519 12.1243 0 12 0C11.8757 0 11.7528 0.0315519 11.64 0.0924666L0.497145 6.09185C0.348362 6.17217 0.222447 6.30058 0.134332 6.46186C0.0462162 6.62314 -0.00040305 6.81051 2.6252e-06 7.00175V10.0014C2.6252e-06 10.2666 0.0903084 10.521 0.251054 10.7085C0.411799 10.896 0.629817 11.0013 0.857145 11.0013H1.71429V22.0002C1.48696 22.0002 1.26894 22.1056 1.1082 22.2931C0.947451 22.4806 0.857145 22.7349 0.857145 23.0001C0.857145 23.2653 0.947451 23.5196 1.1082 23.7071C1.26894 23.8947 1.48696 24 1.71429 24H22.2857C22.513 24 22.7311 23.8947 22.8918 23.7071C23.0526 23.5196 23.1429 23.2653 23.1429 23.0001C23.1429 22.7349 23.0526 22.4806 22.8918 22.2931C22.7311 22.1056 22.513 22.0002 22.2857 22.0002V11.0013H23.1429C23.3702 11.0013 23.5882 10.896 23.7489 10.7085C23.9097 10.521 24 10.2666 24 10.0014V7.00175C24.0004 6.81051 23.9538 6.62314 23.8657 6.46186C23.7776 6.30058 23.6516 6.17217 23.5029 6.09185ZM3.42857 11.0013H3V21.9977L3.42857 11.0013ZM17.1429 11.0013V22.0002H15.4286V14.001C15.4286 13.7358 15.3383 13.4815 15.1775 13.294C15.0168 13.1065 14.7988 13.0011 14.5714 13.0011H9.42857C9.20124 13.0011 8.98323 13.1065 8.82248 13.294C8.66174 13.4815 8.57143 13.7358 8.57143 14.001V22.0002H6.85714V11.0013H17.1429ZM10.2857 22.0002V15.0009H13.7143V22.0002H10.2857ZM20.5714 22.0002L20.5714 16.9982V10.9989L20.5714 11.0013V22.0002ZM22.2857 9.00155H1.71429V7.64169L12 2.10226L22.2857 7.64169V9.00155Z" fill="#6F759F"/>
</svg>
