<svg width="24" height="25" viewBox="0 0 24 25" fill="none" xmlns="http://www.w3.org/2000/svg">
<path d="M11 4.54085H4C3.46957 4.54085 2.96086 4.75156 2.58579 5.12663C2.21071 5.50171 2 6.01041 2 6.54085V20.5408C2 21.0713 2.21071 21.58 2.58579 21.9551C2.96086 22.3301 3.46957 22.5408 4 22.5408H18C18.5304 22.5408 19.0391 22.3301 19.4142 21.9551C19.7893 21.58 20 21.0713 20 20.5408V13.5408" stroke="#14AE5C" stroke-width="2" stroke-linecap="round" stroke-linejoin="round"/>
<path d="M18.5 3.04085C18.8978 2.64302 19.4374 2.41953 20 2.41953C20.5626 2.41953 21.1022 2.64302 21.5 3.04085C21.8978 3.43867 22.1213 3.97824 22.1213 4.54085C22.1213 5.10345 21.8978 5.64302 21.5 6.04085L12 15.5408L8 16.5408L9 12.5408L18.5 3.04085Z" stroke="#14AE5C" stroke-width="2" stroke-linecap="round" stroke-linejoin="round"/>
</svg>
