<svg width="26" height="25" viewBox="0 0 26 25" fill="none" xmlns="http://www.w3.org/2000/svg">
<path d="M21.3335 8.33329L13.0002 13.5416L4.66683 8.33329V6.24996L13.0002 11.4583L21.3335 6.24996M21.3335 4.16663H4.66683C3.51058 4.16663 2.5835 5.09371 2.5835 6.24996V18.75C2.5835 19.3025 2.80299 19.8324 3.19369 20.2231C3.58439 20.6138 4.1143 20.8333 4.66683 20.8333H21.3335C21.886 20.8333 22.4159 20.6138 22.8066 20.2231C23.1973 19.8324 23.4168 19.3025 23.4168 18.75V6.24996C23.4168 5.69742 23.1973 5.16752 22.8066 4.77682C22.4159 4.38612 21.886 4.16663 21.3335 4.16663Z" fill="#50508F"/>
</svg>
