<svg width="20" height="20" viewBox="0 0 20 20" fill="none" xmlns="http://www.w3.org/2000/svg">
<path d="M8.70668 3.77952L8.97149 7.71736L9.10294 9.69657C9.10437 9.90013 9.13623 10.1023 9.19777 10.2967C9.35652 10.6739 9.73852 10.9136 10.1541 10.8969L16.4863 10.4826C16.7605 10.4782 17.0253 10.5807 17.2224 10.7678C17.3867 10.9237 17.4927 11.1276 17.5262 11.347L17.5374 11.4801C17.2754 15.1086 14.6105 18.135 10.9895 18.9163C7.36851 19.6975 3.65541 18.0472 1.8661 14.8613C1.35026 13.9357 1.02806 12.9184 0.918413 11.869C0.872614 11.5583 0.852449 11.2445 0.858108 10.9306C0.852449 7.04053 3.6227 3.67738 7.50052 2.86661C7.96724 2.79393 8.42478 3.04101 8.61194 3.46676C8.66036 3.56536 8.69232 3.67096 8.70668 3.77952Z" fill="#737791"/>
<path opacity="0.4" d="M19.8796 7.5156L19.8729 7.5466L19.8537 7.59167L19.8563 7.71545C19.8464 7.87934 19.7831 8.03704 19.6741 8.1645C19.5604 8.29719 19.4052 8.38755 19.2343 8.42265L19.13 8.43692L11.8242 8.91032C11.5812 8.93429 11.3392 8.85591 11.1586 8.69478C11.0079 8.56038 10.9117 8.37909 10.8844 8.18371L10.3941 0.888519C10.3856 0.863855 10.3856 0.837117 10.3941 0.812444C10.4008 0.611355 10.4893 0.421281 10.6399 0.284682C10.7904 0.148084 10.9905 0.0763457 11.1953 0.0854961C15.5326 0.195842 19.1779 3.31472 19.8796 7.5156Z" fill="#737791"/>
</svg>
