<svg width="64" height="64" viewBox="0 0 64 64" fill="none" xmlns="http://www.w3.org/2000/svg">
<rect width="64" height="64" rx="32" fill="#FDEDED"/>
<path d="M31.1426 26.0018C31.1426 26.1996 31.1928 26.3929 31.287 26.5573C31.3812 26.7218 31.5151 26.8499 31.6717 26.9256C31.8283 27.0013 32.0007 27.0211 32.1669 26.9825C32.3332 26.9439 32.4859 26.8487 32.6058 26.7089C32.7257 26.569 32.8073 26.3909 32.8404 26.1969C32.8735 26.0029 32.8565 25.8019 32.7916 25.6192C32.7267 25.4365 32.6169 25.2803 32.4759 25.1704C32.335 25.0606 32.1692 25.0019 31.9997 25.0019C31.7724 25.0019 31.5544 25.1073 31.3936 25.2948C31.2329 25.4823 31.1426 25.7366 31.1426 26.0018Z" fill="#6F759F"/>
<path d="M43.5029 26.0918L32.36 20.0925C32.2472 20.0316 32.1243 20 32 20C31.8757 20 31.7528 20.0316 31.64 20.0925L20.4971 26.0918C20.3484 26.1722 20.2224 26.3006 20.1343 26.4619C20.0462 26.6231 19.9996 26.8105 20 27.0018V30.0014C20 30.2666 20.0903 30.521 20.2511 30.7085C20.4118 30.896 20.6298 31.0013 20.8571 31.0013H21.7143V42.0002C21.487 42.0002 21.2689 42.1056 21.1082 42.2931C20.9475 42.4806 20.8571 42.7349 20.8571 43.0001C20.8571 43.2653 20.9475 43.5196 21.1082 43.7071C21.2689 43.8947 21.487 44 21.7143 44H42.2857C42.513 44 42.7311 43.8947 42.8918 43.7071C43.0526 43.5196 43.1429 43.2653 43.1429 43.0001C43.1429 42.7349 43.0526 42.4806 42.8918 42.2931C42.7311 42.1056 42.513 42.0002 42.2857 42.0002V31.0013H43.1429C43.3702 31.0013 43.5882 30.896 43.7489 30.7085C43.9097 30.521 44 30.2666 44 30.0014V27.0018C44.0004 26.8105 43.9538 26.6231 43.8657 26.4619C43.7776 26.3006 43.6516 26.1722 43.5029 26.0918ZM23.4286 31.0013H23V41.9977L23.4286 31.0013ZM37.1429 31.0013V42.0002H35.4286V34.001C35.4286 33.7358 35.3383 33.4815 35.1775 33.294C35.0168 33.1065 34.7988 33.0011 34.5714 33.0011H29.4286C29.2012 33.0011 28.9832 33.1065 28.8225 33.294C28.6617 33.4815 28.5714 33.7358 28.5714 34.001V42.0002H26.8571V31.0013H37.1429ZM30.2857 42.0002V35.0009H33.7143V42.0002H30.2857ZM40.5714 42.0002L40.5714 36.9982V30.9989L40.5714 31.0013V42.0002ZM42.2857 29.0015H21.7143V27.6417L32 22.1023L42.2857 27.6417V29.0015Z" fill="#6F759F"/>
</svg>
