<svg width="20" height="20" viewBox="0 0 20 20" fill="none" xmlns="http://www.w3.org/2000/svg">
<path fill-rule="evenodd" clip-rule="evenodd" d="M6.25043 0.428467H14.4972C17.7218 0.428467 19.881 2.6923 19.881 6.05951V13.8317C19.881 17.1894 17.7218 19.4523 14.4972 19.4523H6.25043C3.02589 19.4523 0.857178 17.1894 0.857178 13.8317V6.05951C0.857178 2.6923 3.02589 0.428467 6.25043 0.428467ZM10.3599 7.14481C9.91283 7.14481 9.54187 6.7729 9.54187 6.31728C9.54187 5.85119 9.91283 5.48023 10.3789 5.48023C10.8355 5.48023 11.2064 5.85119 11.2064 6.31728C11.2064 6.7729 10.8355 7.14481 10.3599 7.14481ZM11.1966 13.5366C11.1966 13.9931 10.8257 14.3641 10.3596 14.3641C9.903 14.3641 9.53203 13.9931 9.53203 13.5366V9.33231C9.53203 8.87479 9.903 8.49526 10.3596 8.49526C10.8257 8.49526 11.1966 8.87479 11.1966 9.33231V13.5366Z" fill="#737791"/>
</svg>
