<svg width="76" height="76" viewBox="0 0 76 76" fill="none" xmlns="http://www.w3.org/2000/svg">
<rect width="76" height="76" rx="8" fill="#F0F5FF"/>
<path d="M38.1641 10C21.6041 10 8.16406 23.44 8.16406 40C8.16406 56.56 21.6041 70 38.1641 70C54.7241 70 68.1641 56.56 68.1641 40C68.1641 23.44 54.7241 10 38.1641 10ZM60.5441 31.36L52.2041 34.81C51.453 32.7882 50.2731 30.9529 48.7454 29.4304C47.2177 27.9079 45.3784 26.7342 43.3541 25.99L46.8041 17.65C53.1041 20.05 58.1141 25.06 60.5441 31.36ZM38.1641 49C33.1841 49 29.1641 44.98 29.1641 40C29.1641 35.02 33.1841 31 38.1641 31C43.1441 31 47.1641 35.02 47.1641 40C47.1641 44.98 43.1441 49 38.1641 49ZM29.5541 17.62L33.0641 25.96C31.016 26.7064 29.1552 27.8901 27.6113 29.4289C26.0673 30.9677 24.8773 32.8245 24.1241 34.87L15.7841 31.39C16.9864 28.2581 18.8335 25.4138 21.2057 23.0416C23.5779 20.6694 26.4221 18.8223 29.5541 17.62ZM15.7841 48.61L24.1241 45.16C24.8724 47.2 26.0576 49.0518 27.5967 50.5857C29.1358 52.1196 30.9916 53.2985 33.0341 54.04L29.5241 62.38C26.3996 61.1709 23.5628 59.321 21.1964 56.9495C18.83 54.5779 16.9863 51.7371 15.7841 48.61ZM46.8041 62.38L43.3541 54.04C45.3875 53.2862 47.2324 52.0987 48.7607 50.56C50.289 49.0214 51.464 47.1685 52.2041 45.13L60.5441 48.64C59.3383 51.7616 57.493 54.5965 55.1268 56.9627C52.7606 59.329 49.9256 61.1742 46.8041 62.38Z" fill="black" fill-opacity="0.7"/>
</svg>
