<svg width="76" height="76" viewBox="0 0 76 76" fill="none" xmlns="http://www.w3.org/2000/svg">
<rect width="76" height="76" rx="8" fill="#F0F5FF"/>
<path d="M48.2 45.8V42.9C48.2 41.6 49 40.5 50.2 40.1C48.3 38.7 45.3 37.8 38.9 37.1L36 41.9L32.6 47.4C32.2 48 31.3 48 30.9 47.4L24.7 37.1C17.3 38 10 39.3 10 46.8V58.2H38.3V50.3C38.3 47.8 40.3 45.7 42.9 45.7H48.2V45.8ZM58.7 42.9C58.7 42.4 58.3 42 57.8 42H51.2C50.7 42 50.3 42.4 50.3 42.9V45.8H58.8V42.9H58.7ZM31.8 33.9C38.2 33.9 43.2 26.7 43.2 20.5C43.2 14.2 38.1 9 31.8 9C25.5 9 20.3 14.2 20.3 20.5C20.3 26.7 25.3 33.9 31.8 33.9Z" fill="black" fill-opacity="0.7"/>
<path d="M66.2502 45.6001H43.0502C41.6502 45.6001 40.4502 46.8001 40.4502 48.2001V63.1001C40.4502 64.5001 41.6502 65.7001 43.0502 65.7001H66.2502C67.6502 65.7001 68.8502 64.5001 68.8502 63.1001V48.1001C68.8502 46.7001 67.6502 45.6001 66.2502 45.6001ZM60.6502 52.9001L53.8502 59.7001C53.4502 60.1001 52.8502 60.1001 52.4502 59.7001L48.7502 56.0001C48.3502 55.6001 48.3502 55.0001 48.7502 54.6001C49.1502 54.2001 49.7502 54.2001 50.1502 54.6001L53.1502 57.6001L59.1502 51.6001C59.5502 51.2001 60.1502 51.2001 60.5502 51.6001C60.9502 52.0001 61.0502 52.5001 60.6502 52.9001Z" fill="black" fill-opacity="0.7"/>
</svg>
