<svg width="76" height="76" viewBox="0 0 76 76" fill="none" xmlns="http://www.w3.org/2000/svg">
<rect width="76" height="76" rx="10" fill="#0B63E5"/>
<path fill-rule="evenodd" clip-rule="evenodd" d="M49.085 18.7606C48.6712 18.0995 48.0617 17.5838 47.3411 17.2854C46.6206 16.987 45.825 16.9206 45.065 17.0956L39.671 18.3346C39.1182 18.4616 38.5438 18.4616 37.991 18.3346L32.597 17.0956C31.837 16.9206 31.0413 16.987 30.3208 17.2854C29.6003 17.5838 28.9907 18.0995 28.577 18.7606L25.637 23.4526C25.337 23.9326 24.932 24.3376 24.452 24.6406L19.76 27.5806C19.1 27.9939 18.5851 28.6025 18.2868 29.3218C17.9884 30.0411 17.9214 30.8354 18.095 31.5946L19.334 36.9946C19.4606 37.5464 19.4606 38.1197 19.334 38.6716L18.095 44.0686C17.9207 44.8281 17.9874 45.6231 18.2858 46.343C18.5842 47.0629 19.0995 47.672 19.76 48.0856L24.452 51.0256C24.932 51.3256 25.337 51.7306 25.64 52.2106L28.58 56.9026C29.426 58.2556 31.04 58.9246 32.597 58.5676L37.991 57.3286C38.5438 57.2015 39.1182 57.2015 39.671 57.3286L45.068 58.5676C45.8275 58.7418 46.6225 58.6751 47.3424 58.3767C48.0623 58.0784 48.6714 57.5631 49.085 56.9026L52.025 52.2106C52.325 51.7306 52.73 51.3256 53.21 51.0256L57.905 48.0856C58.5655 47.6714 59.0805 47.0617 59.3784 46.3412C59.6763 45.6207 59.7422 44.8253 59.567 44.0656L58.331 38.6716C58.2039 38.1188 58.2039 37.5444 58.331 36.9916L59.57 31.5946C59.7445 30.8353 59.6783 30.0405 59.3804 29.3207C59.0826 28.6008 58.5679 27.9915 57.908 27.5776L53.213 24.6376C52.7336 24.337 52.3285 23.9319 52.028 23.4526L49.085 18.7606ZM47.576 31.1416C47.7615 30.8004 47.8075 30.4005 47.7042 30.0261C47.6009 29.6517 47.3565 29.3319 47.0222 29.1341C46.688 28.9363 46.29 28.8758 45.9121 28.9654C45.5342 29.055 45.2058 29.2877 44.996 29.6146L37.151 42.8926L32.414 38.3566C32.2734 38.2123 32.1053 38.0978 31.9195 38.0199C31.7338 37.942 31.5343 37.9023 31.3328 37.9031C31.1314 37.904 30.9322 37.9454 30.7472 38.025C30.5621 38.1045 30.395 38.2205 30.2557 38.366C30.1164 38.5115 30.0079 38.6836 29.9366 38.8719C29.8653 39.0603 29.8326 39.2611 29.8406 39.4624C29.8485 39.6636 29.8969 39.8612 29.9829 40.0434C30.0689 40.2255 30.1906 40.3885 30.341 40.5226L36.443 46.3696C36.6063 46.5257 36.8028 46.643 37.0178 46.7125C37.2327 46.7821 37.4607 46.8022 37.6845 46.7714C37.9083 46.7405 38.1223 46.6595 38.3104 46.5343C38.4986 46.4091 38.656 46.2431 38.771 46.0486L47.576 31.1416Z" fill="white"/>
</svg>
