<svg width="20" height="20" viewBox="0 0 20 20" fill="none" xmlns="http://www.w3.org/2000/svg">
<path d="M3.33301 5.83301H16.6663" stroke="#EC221F" stroke-width="1.5" stroke-linecap="round" stroke-linejoin="round"/>
<path d="M8.33301 9.16699V14.167" stroke="#EC221F" stroke-width="1.5" stroke-linecap="round" stroke-linejoin="round"/>
<path d="M11.666 9.16699V14.167" stroke="#EC221F" stroke-width="1.5" stroke-linecap="round" stroke-linejoin="round"/>
<path d="M4.16602 5.83301L4.99935 15.833C4.99935 16.275 5.17494 16.699 5.4875 17.0115C5.80006 17.3241 6.22399 17.4997 6.66602 17.4997H13.3327C13.7747 17.4997 14.1986 17.3241 14.5112 17.0115C14.8238 16.699 14.9993 16.275 14.9993 15.833L15.8327 5.83301" stroke="#EC221F" stroke-width="1.5" stroke-linecap="round" stroke-linejoin="round"/>
<path d="M7.5 5.83333V3.33333C7.5 3.11232 7.5878 2.90036 7.74408 2.74408C7.90036 2.5878 8.11232 2.5 8.33333 2.5H11.6667C11.8877 2.5 12.0996 2.5878 12.2559 2.74408C12.4122 2.90036 12.5 3.11232 12.5 3.33333V5.83333" stroke="#EC221F" stroke-width="1.5" stroke-linecap="round" stroke-linejoin="round"/>
</svg>
