<svg width="20" height="20" viewBox="0 0 20 20" fill="none" xmlns="http://www.w3.org/2000/svg">
<path d="M7.53072 0.428223C5.04675 0.428223 3.02734 2.44763 3.02734 4.9316C3.02734 7.36816 4.93298 9.34017 7.41695 9.4255C7.4928 9.41602 7.56865 9.41602 7.62553 9.4255C7.64449 9.4255 7.65397 9.4255 7.67293 9.4255C7.68242 9.4255 7.68242 9.4255 7.6919 9.4255C10.119 9.34017 12.0246 7.36816 12.0341 4.9316C12.0341 2.44763 10.0147 0.428223 7.53072 0.428223Z" fill="#737791"/>
<path d="M12.3479 11.9473C9.70276 10.1839 5.389 10.1839 2.72489 11.9473C1.52083 12.7532 0.857178 13.8435 0.857178 15.0096C0.857178 16.1758 1.52083 17.2566 2.71541 18.053C4.04272 18.9442 5.78719 19.3898 7.53166 19.3898C9.27612 19.3898 11.0206 18.9442 12.3479 18.053C13.5425 17.2471 14.2061 16.1663 14.2061 14.9907C14.1967 13.8245 13.5425 12.7437 12.3479 11.9473Z" fill="#737791"/>
<path d="M17.9512 5.49091C18.1029 7.33018 16.7945 8.94192 14.9837 9.15998C14.9742 9.15998 14.9742 9.15998 14.9647 9.15998H14.9363C14.8794 9.15998 14.8225 9.15998 14.7751 9.17894C13.8555 9.22634 13.0117 8.93244 12.3765 8.39203C13.353 7.5198 13.9124 6.21145 13.7986 4.78933C13.7322 4.02139 13.4668 3.31981 13.0686 2.72252C13.4288 2.54238 13.846 2.42861 14.2726 2.39069C16.1309 2.22952 17.79 3.61371 17.9512 5.49091Z" fill="#737791"/>
<path d="M19.8471 14.2606C19.7712 15.1802 19.1834 15.9766 18.1974 16.517C17.2494 17.0385 16.0548 17.285 14.8697 17.2565C15.5523 16.6403 15.9505 15.8723 16.0263 15.057C16.1211 13.8814 15.5618 12.7531 14.443 11.8525C13.8078 11.35 13.0683 10.9518 12.2625 10.6579C14.3577 10.0511 16.9934 10.4588 18.6146 11.7671C19.4868 12.4687 19.9324 13.3504 19.8471 14.2606Z" fill="#737791"/>
</svg>
