<svg width="20" height="22" viewBox="0 0 20 22" fill="none" xmlns="http://www.w3.org/2000/svg">
<path fill-rule="evenodd" clip-rule="evenodd" d="M2.97093 -0.00341797H17.7672C18.9346 -0.00341797 19.881 0.957794 19.881 2.14351V18.4111C19.881 19.8981 18.4287 20.9348 17.0513 20.4312L15.4007 19.8276C14.8849 19.639 14.3172 19.6613 13.8173 19.8898L11.2365 21.0694C10.6849 21.3215 10.0533 21.3215 9.50167 21.0694L6.92088 19.8898C6.421 19.6613 5.85327 19.639 5.3375 19.8276L3.6869 20.4312C2.30945 20.9348 0.857178 19.8981 0.857178 18.4111V2.14351C0.857178 0.957794 1.80354 -0.00341797 2.97093 -0.00341797ZM6.14157 4.5588C5.7038 4.5588 5.34891 4.91926 5.34891 5.3639C5.34891 5.80854 5.7038 6.169 6.14157 6.169H10.3691C10.8069 6.169 11.1617 5.80854 11.1617 5.3639C11.1617 4.91926 10.8069 4.5588 10.3691 4.5588H6.14157ZM6.14157 8.85265C5.7038 8.85265 5.34891 9.21311 5.34891 9.65775C5.34891 10.1024 5.7038 10.4628 6.14157 10.4628H14.5966C15.0344 10.4628 15.3893 10.1024 15.3893 9.65775C15.3893 9.21311 15.0344 8.85265 14.5966 8.85265H6.14157ZM6.14157 13.1465C5.7038 13.1465 5.34891 13.507 5.34891 13.9516C5.34891 14.3962 5.7038 14.7567 6.14157 14.7567H14.5966C15.0344 14.7567 15.3893 14.3962 15.3893 13.9516C15.3893 13.507 15.0344 13.1465 14.5966 13.1465H6.14157Z" fill="#737791"/>
</svg>
