<svg width="20" height="21" viewBox="0 0 20 21" fill="none" xmlns="http://www.w3.org/2000/svg">
<path fill-rule="evenodd" clip-rule="evenodd" d="M9.17002 0.774685C9.9253 0.397045 10.8143 0.397045 11.5696 0.774685L18.7075 4.34364C19.9658 4.9728 19.9658 6.76847 18.7075 7.39763L11.5696 10.9666C10.8143 11.3442 9.9253 11.3442 9.17002 10.9666L2.03211 7.39763C0.773797 6.76847 0.773804 4.97279 2.03211 4.34364L9.17002 0.774685Z" fill="#737791"/>
<path fill-rule="evenodd" clip-rule="evenodd" d="M0.920422 15.329C1.08454 14.9597 1.51693 14.7934 1.88619 14.9575L9.87381 18.5076C10.1891 18.6477 10.549 18.6477 10.8643 18.5076L18.852 14.9575C19.2212 14.7934 19.6536 14.9597 19.8177 15.329C19.9819 15.6982 19.8156 16.1306 19.4463 16.2947L11.4587 19.8448C10.765 20.1531 9.97317 20.1531 9.2795 19.8448L1.29187 16.2947C0.922609 16.1306 0.756305 15.6982 0.920422 15.329Z" fill="#737791"/>
<path fill-rule="evenodd" clip-rule="evenodd" d="M0.920422 10.9388C1.08454 10.5696 1.51693 10.4033 1.88619 10.5674L9.87381 14.1174C10.1891 14.2576 10.549 14.2576 10.8643 14.1175L18.852 10.5674C19.2212 10.4033 19.6536 10.5696 19.8177 10.9388C19.9819 11.3081 19.8156 11.7405 19.4463 11.9046L11.4587 15.4547C10.765 15.763 9.97317 15.763 9.2795 15.4547L1.29187 11.9046C0.922609 11.7405 0.756305 11.3081 0.920422 10.9388Z" fill="#737791"/>
</svg>
