<svg width="63" height="63" viewBox="0 0 63 63" fill="none" xmlns="http://www.w3.org/2000/svg">
<g filter="url(#filter0_d_518_13188)">
<rect x="2.92578" y="1.20001" width="57.6" height="57.6" rx="28.8" fill="#F3F6FD"/>
<path d="M32.7077 29.2917H38.5077C39.8611 29.2917 40.5379 29.2917 41.0548 29.5551C41.5096 29.7868 41.8793 30.1565 42.1109 30.6112C42.3743 31.1281 42.3743 31.8049 42.3743 33.1583V41.375M32.7077 41.375V23.4917C32.7077 22.1382 32.7077 21.4615 32.4443 20.9445C32.2126 20.4898 31.8429 20.1201 31.3882 19.8884C30.8712 19.625 30.1945 19.625 28.841 19.625H24.491C23.1376 19.625 22.4608 19.625 21.9439 19.8884C21.4891 20.1201 21.1194 20.4898 20.8877 20.9445C20.6243 21.4615 20.6243 22.1382 20.6243 23.4917V41.375M43.5827 41.375H19.416M24.8535 24.4583H28.4785M24.8535 29.2917H28.4785M24.8535 34.125H28.4785" stroke="#4B68FF" stroke-width="2" stroke-linecap="round" stroke-linejoin="round"/>
</g>
<defs>
<filter id="filter0_d_518_13188" x="0.525781" y="1.21593e-05" width="62.3996" height="62.4" filterUnits="userSpaceOnUse" color-interpolation-filters="sRGB">
<feFlood flood-opacity="0" result="BackgroundImageFix"/>
<feColorMatrix in="SourceAlpha" type="matrix" values="0 0 0 0 0 0 0 0 0 0 0 0 0 0 0 0 0 0 127 0" result="hardAlpha"/>
<feOffset dy="1.2"/>
<feGaussianBlur stdDeviation="1.2"/>
<feColorMatrix type="matrix" values="0 0 0 0 0.0627451 0 0 0 0 0.0941176 0 0 0 0 0.156863 0 0 0 0.05 0"/>
<feBlend mode="normal" in2="BackgroundImageFix" result="effect1_dropShadow_518_13188"/>
<feBlend mode="normal" in="SourceGraphic" in2="effect1_dropShadow_518_13188" result="shape"/>
</filter>
</defs>
</svg>
