<svg width="42" height="42" viewBox="0 0 42 42" fill="none" xmlns="http://www.w3.org/2000/svg">
<rect width="42" height="42" rx="8" fill="#F3F6FD"/>
<path d="M17 14.75C16.59 14.75 16.25 14.41 16.25 14V11C16.25 10.59 16.59 10.25 17 10.25C17.41 10.25 17.75 10.59 17.75 11V14C17.75 14.41 17.41 14.75 17 14.75Z" fill="#4B68FF"/>
<path d="M25 14.75C24.59 14.75 24.25 14.41 24.25 14V11C24.25 10.59 24.59 10.25 25 10.25C25.41 10.25 25.75 10.59 25.75 11V14C25.75 14.41 25.41 14.75 25 14.75Z" fill="#4B68FF"/>
<path d="M17.5 23.5001C17.37 23.5001 17.24 23.4701 17.12 23.4201C16.99 23.3701 16.89 23.3001 16.79 23.2101C16.61 23.0201 16.5 22.7701 16.5 22.5001C16.5 22.3701 16.53 22.2401 16.58 22.1201C16.63 22.0001 16.7 21.8901 16.79 21.7901C16.89 21.7001 16.99 21.6301 17.12 21.5801C17.48 21.4301 17.93 21.5101 18.21 21.7901C18.39 21.9801 18.5 22.2401 18.5 22.5001C18.5 22.5601 18.49 22.6301 18.48 22.7001C18.47 22.7601 18.45 22.8201 18.42 22.8801C18.4 22.9401 18.37 23.0001 18.33 23.0601C18.3 23.1101 18.25 23.1601 18.21 23.2101C18.02 23.3901 17.76 23.5001 17.5 23.5001Z" fill="#4B68FF"/>
<path d="M21 23.5C20.87 23.5 20.74 23.47 20.62 23.42C20.49 23.37 20.39 23.3 20.29 23.21C20.11 23.02 20 22.77 20 22.5C20 22.37 20.03 22.24 20.08 22.12C20.13 22 20.2 21.89 20.29 21.79C20.39 21.7 20.49 21.63 20.62 21.58C20.98 21.42 21.43 21.51 21.71 21.79C21.89 21.98 22 22.24 22 22.5C22 22.56 21.99 22.63 21.98 22.7C21.97 22.76 21.95 22.82 21.92 22.88C21.9 22.94 21.87 23 21.83 23.06C21.8 23.11 21.75 23.16 21.71 23.21C21.52 23.39 21.26 23.5 21 23.5Z" fill="#4B68FF"/>
<path d="M24.5 23.5C24.37 23.5 24.24 23.47 24.12 23.42C23.99 23.37 23.89 23.3 23.79 23.21C23.75 23.16 23.71 23.11 23.67 23.06C23.63 23 23.6 22.94 23.58 22.88C23.55 22.82 23.53 22.76 23.52 22.7C23.51 22.63 23.5 22.56 23.5 22.5C23.5 22.24 23.61 21.98 23.79 21.79C23.89 21.7 23.99 21.63 24.12 21.58C24.49 21.42 24.93 21.51 25.21 21.79C25.39 21.98 25.5 22.24 25.5 22.5C25.5 22.56 25.49 22.63 25.48 22.7C25.47 22.76 25.45 22.82 25.42 22.88C25.4 22.94 25.37 23 25.33 23.06C25.3 23.11 25.25 23.16 25.21 23.21C25.02 23.39 24.76 23.5 24.5 23.5Z" fill="#4B68FF"/>
<path d="M17.5 26.9999C17.37 26.9999 17.24 26.97 17.12 26.92C17 26.87 16.89 26.7999 16.79 26.7099C16.61 26.5199 16.5 26.2599 16.5 25.9999C16.5 25.8699 16.53 25.7399 16.58 25.6199C16.63 25.4899 16.7 25.38 16.79 25.29C17.16 24.92 17.84 24.92 18.21 25.29C18.39 25.48 18.5 25.7399 18.5 25.9999C18.5 26.2599 18.39 26.5199 18.21 26.7099C18.02 26.8899 17.76 26.9999 17.5 26.9999Z" fill="#4B68FF"/>
<path d="M21 26.9999C20.74 26.9999 20.48 26.8899 20.29 26.7099C20.11 26.5199 20 26.2599 20 25.9999C20 25.8699 20.03 25.7399 20.08 25.6199C20.13 25.4899 20.2 25.38 20.29 25.29C20.66 24.92 21.34 24.92 21.71 25.29C21.8 25.38 21.87 25.4899 21.92 25.6199C21.97 25.7399 22 25.8699 22 25.9999C22 26.2599 21.89 26.5199 21.71 26.7099C21.52 26.8899 21.26 26.9999 21 26.9999Z" fill="#4B68FF"/>
<path d="M24.5 27C24.24 27 23.98 26.89 23.79 26.71C23.7 26.62 23.63 26.51 23.58 26.38C23.53 26.26 23.5 26.13 23.5 26C23.5 25.87 23.53 25.74 23.58 25.62C23.63 25.49 23.7 25.38 23.79 25.29C24.02 25.06 24.37 24.95 24.69 25.02C24.76 25.03 24.82 25.05 24.88 25.08C24.94 25.1 25 25.13 25.06 25.17C25.11 25.2 25.16 25.25 25.21 25.29C25.39 25.48 25.5 25.74 25.5 26C25.5 26.26 25.39 26.52 25.21 26.71C25.02 26.89 24.76 27 24.5 27Z" fill="#4B68FF"/>
<path d="M29.5 18.84H12.5C12.09 18.84 11.75 18.5 11.75 18.09C11.75 17.68 12.09 17.34 12.5 17.34H29.5C29.91 17.34 30.25 17.68 30.25 18.09C30.25 18.5 29.91 18.84 29.5 18.84Z" fill="#4B68FF"/>
<path d="M25 31.75H17C13.35 31.75 11.25 29.65 11.25 26V17.5C11.25 13.85 13.35 11.75 17 11.75H25C28.65 11.75 30.75 13.85 30.75 17.5V26C30.75 29.65 28.65 31.75 25 31.75ZM17 13.25C14.14 13.25 12.75 14.64 12.75 17.5V26C12.75 28.86 14.14 30.25 17 30.25H25C27.86 30.25 29.25 28.86 29.25 26V17.5C29.25 14.64 27.86 13.25 25 13.25H17Z" fill="#4B68FF"/>
</svg>
