<svg width="50" height="50" viewBox="0 0 50 50" fill="none" xmlns="http://www.w3.org/2000/svg">
<path d="M48 0H2C0.89375 0 0 0.89375 0 2V48C0 49.1063 0.89375 50 2 50H48C49.1063 50 50 49.1063 50 48V2C50 0.89375 49.1063 0 48 0ZM18.25 35.6875V40.5C18.25 40.775 18.025 41 17.75 41H14.75C14.475 41 14.25 40.775 14.25 40.5V35.6875C11.6438 34.8375 9.75 32.3875 9.75 29.5C9.75 26.6125 11.6438 24.1562 14.25 23.3125V9.5C14.25 9.225 14.475 9 14.75 9H17.75C18.025 9 18.25 9.225 18.25 9.5V23.3125C20.8563 24.1625 22.75 26.6125 22.75 29.5C22.75 32.3875 20.8563 34.8438 18.25 35.6875ZM35.725 26.6937C35.7375 26.6937 35.7438 26.6875 35.75 26.6875V40.5C35.75 40.775 35.525 41 35.25 41H32.25C31.975 41 31.75 40.775 31.75 40.5V26.6875C31.7625 26.6875 31.7688 26.6937 31.775 26.6937C29.15 25.8562 27.25 23.4 27.25 20.5C27.25 17.6 29.15 15.1437 31.775 14.3062C31.7625 14.3062 31.7563 14.3125 31.75 14.3125V9.5C31.75 9.225 31.975 9 32.25 9H35.25C35.525 9 35.75 9.225 35.75 9.5V14.3125C35.7375 14.3125 35.7312 14.3062 35.725 14.3062C38.35 15.1437 40.25 17.6 40.25 20.5C40.25 23.4 38.35 25.8562 35.725 26.6937ZM31.5 20.5C31.5 21.0967 31.7371 21.669 32.159 22.091C32.581 22.5129 33.1533 22.75 33.75 22.75C34.3467 22.75 34.919 22.5129 35.341 22.091C35.7629 21.669 36 21.0967 36 20.5C36 19.9033 35.7629 19.331 35.341 18.909C34.919 18.4871 34.3467 18.25 33.75 18.25C33.1533 18.25 32.581 18.4871 32.159 18.909C31.7371 19.331 31.5 19.9033 31.5 20.5ZM18.2125 28.4062L18.1187 28.2562C18.1187 28.25 18.1125 28.25 18.1125 28.2438L18.0562 28.1688C18.05 28.1625 18.0438 28.1563 18.0438 28.15C17.9813 28.0688 17.9188 27.9937 17.8438 27.925L17.8312 27.9125C17.8062 27.8875 17.7812 27.8625 17.7563 27.8438C17.7063 27.7938 17.65 27.75 17.5938 27.7125H17.5875L17.5125 27.6562C17.5063 27.65 17.4937 27.6438 17.4875 27.6375C17.4125 27.5875 17.3312 27.5375 17.2437 27.5C17.2312 27.4937 17.2125 27.4875 17.2 27.475C17.175 27.4625 17.1562 27.4562 17.1313 27.4437C17.1125 27.4375 17.0875 27.425 17.0688 27.4188C17.0375 27.4062 17.0063 27.3938 16.975 27.3875C16.95 27.3813 16.9187 27.3687 16.8937 27.3625L16.8375 27.3438L16.75 27.325C16.7375 27.3188 16.7188 27.3188 16.7062 27.3125C16.6625 27.3062 16.6188 27.2937 16.575 27.2875C16.5625 27.2875 16.55 27.2875 16.5375 27.2812C16.5 27.275 16.4688 27.275 16.4312 27.2687C16.4187 27.2687 16.4062 27.2688 16.3875 27.2625C16.3375 27.2625 16.2937 27.2562 16.2437 27.2562C16.1938 27.2562 16.15 27.2563 16.1 27.2625C16.0875 27.2625 16.075 27.2625 16.0562 27.2687C16.0187 27.2687 15.9813 27.275 15.95 27.2812C15.9375 27.2812 15.925 27.2812 15.9125 27.2875C15.8688 27.2937 15.825 27.3 15.7812 27.3125C15.7688 27.3188 15.75 27.3188 15.7375 27.325L15.65 27.3438L15.5938 27.3625C15.5688 27.3687 15.5375 27.3813 15.5125 27.3875C15.4813 27.4 15.45 27.4125 15.4188 27.4188C15.4 27.425 15.375 27.4375 15.3563 27.4437C15.3313 27.4562 15.3125 27.4625 15.2875 27.475C15.275 27.4812 15.2562 27.4875 15.2437 27.5C15.1625 27.5438 15.0813 27.5875 15 27.6375C14.9937 27.6438 14.9813 27.65 14.975 27.6562L14.9 27.7125H14.8937C14.8375 27.7563 14.7813 27.8 14.7313 27.8438C14.7063 27.8687 14.6812 27.8875 14.6562 27.9125L14.6437 27.925C14.5738 27.997 14.5071 28.0721 14.4438 28.15C14.4375 28.1563 14.4312 28.1625 14.4312 28.1688L14.375 28.2438C14.375 28.25 14.3687 28.25 14.3687 28.2562L14.275 28.4062C14.2687 28.4188 14.2625 28.425 14.2563 28.4375C14.0875 28.7563 13.9875 29.1187 13.9875 29.5C13.9875 29.8813 14.0875 30.25 14.2563 30.5625C14.2625 30.575 14.2687 30.5812 14.275 30.5938L14.3687 30.7438C14.3687 30.75 14.375 30.75 14.375 30.7562L14.4312 30.8312C14.4375 30.8375 14.4438 30.8437 14.4438 30.85C14.5063 30.9312 14.5687 31.0063 14.6437 31.075L14.6562 31.0875C14.6812 31.1125 14.7063 31.1375 14.7313 31.1562C14.7813 31.2062 14.8375 31.25 14.8937 31.2875H14.9L14.975 31.3438C14.9813 31.35 14.9937 31.3562 15 31.3625C15.075 31.4125 15.1562 31.4625 15.2437 31.5C15.2562 31.5063 15.275 31.5125 15.2875 31.525C15.3125 31.5375 15.3313 31.5438 15.3563 31.5563C15.375 31.5625 15.4 31.575 15.4188 31.5812C15.45 31.5938 15.4813 31.6062 15.5125 31.6125C15.5375 31.6187 15.5688 31.6313 15.5938 31.6375L15.65 31.6562L15.7375 31.675C15.75 31.6812 15.7688 31.6812 15.7812 31.6875C15.825 31.6938 15.8688 31.7063 15.9125 31.7125C15.925 31.7125 15.9375 31.7125 15.95 31.7188C15.9875 31.725 16.0187 31.725 16.0562 31.7313C16.0688 31.7313 16.0813 31.7312 16.1 31.7375C16.15 31.7375 16.1938 31.7438 16.2437 31.7438C16.2937 31.7438 16.3375 31.7437 16.3875 31.7375C16.4 31.7375 16.4125 31.7375 16.4312 31.7313C16.4688 31.7313 16.5063 31.725 16.5375 31.7188C16.55 31.7188 16.5625 31.7188 16.575 31.7125C16.6188 31.7063 16.6625 31.7 16.7062 31.6875C16.7188 31.6812 16.7375 31.6812 16.75 31.675L16.8375 31.6562L16.8937 31.6375C16.9187 31.6313 16.95 31.6187 16.975 31.6125C17.0063 31.6 17.0375 31.5875 17.0688 31.5812C17.0875 31.575 17.1125 31.5625 17.1313 31.5563C17.1562 31.5438 17.175 31.5375 17.2 31.525C17.2125 31.5188 17.2312 31.5125 17.2437 31.5C17.325 31.4562 17.4062 31.4125 17.4875 31.3625C17.4937 31.3562 17.5063 31.35 17.5125 31.3438L17.5875 31.2875H17.5938C17.65 31.2437 17.7063 31.2 17.7563 31.1562C17.7812 31.1313 17.8062 31.1125 17.8312 31.0875L17.8438 31.075C17.9125 31.0063 17.9813 30.925 18.0438 30.85C18.05 30.8437 18.0562 30.8375 18.0562 30.8312L18.1125 30.7562C18.1125 30.75 18.1187 30.75 18.1187 30.7438L18.2125 30.5938C18.2188 30.5812 18.225 30.575 18.2313 30.5625C18.4 30.2437 18.5 29.8813 18.5 29.5C18.5 29.1187 18.4 28.75 18.2313 28.4375C18.225 28.425 18.2188 28.4125 18.2125 28.4062Z" fill="black" fill-opacity="0.7"/>
</svg>
