<svg width="42" height="42" viewBox="0 0 42 42" fill="none" xmlns="http://www.w3.org/2000/svg">
<path fill-rule="evenodd" clip-rule="evenodd" d="M31.085 1.76057C30.6712 1.09948 30.0617 0.583839 29.3411 0.285412C28.6206 -0.0130151 27.825 -0.0793749 27.065 0.0955716L21.671 1.33457C21.1182 1.46163 20.5438 1.46163 19.991 1.33457L14.597 0.0955716C13.837 -0.0793749 13.0413 -0.0130151 12.3208 0.285412C11.6003 0.583839 10.9907 1.09948 10.577 1.76057L7.63697 6.45257C7.33697 6.93257 6.93197 7.33757 6.45197 7.64057L1.75997 10.5806C1.10002 10.9939 0.585133 11.6025 0.286771 12.3218C-0.0115921 13.0411 -0.0786276 13.8354 0.094969 14.5946L1.33397 19.9946C1.46056 20.5464 1.46056 21.1197 1.33397 21.6716L0.094969 27.0686C-0.0793022 27.8281 -0.0126041 28.6231 0.285791 29.343C0.584185 30.063 1.09945 30.672 1.75997 31.0856L6.45197 34.0256C6.93197 34.3256 7.33697 34.7306 7.63997 35.2106L10.58 39.9026C11.426 41.2556 13.04 41.9246 14.597 41.5676L19.991 40.3286C20.5438 40.2015 21.1182 40.2015 21.671 40.3286L27.068 41.5676C27.8275 41.7418 28.6225 41.6751 29.3424 41.3767C30.0623 41.0784 30.6714 40.5631 31.085 39.9026L34.025 35.2106C34.325 34.7306 34.73 34.3256 35.21 34.0256L39.905 31.0856C40.5655 30.6714 41.0805 30.0617 41.3784 29.3412C41.6763 28.6207 41.7422 27.8253 41.567 27.0656L40.331 21.6716C40.2039 21.1188 40.2039 20.5444 40.331 19.9916L41.57 14.5946C41.7445 13.8353 41.6783 13.0405 41.3804 12.3207C41.0826 11.6008 40.5679 10.9915 39.908 10.5776L35.213 7.63757C34.7336 7.33702 34.3285 6.9319 34.028 6.45257L31.085 1.76057ZM29.576 14.1416C29.7615 13.8004 29.8075 13.4005 29.7042 13.0261C29.6009 12.6517 29.3565 12.3319 29.0222 12.1341C28.688 11.9363 28.29 11.8758 27.9121 11.9654C27.5342 12.055 27.2058 12.2877 26.996 12.6146L19.151 25.8926L14.414 21.3566C14.2734 21.2123 14.1053 21.0978 13.9195 21.0199C13.7338 20.942 13.5343 20.9023 13.3328 20.9031C13.1314 20.904 12.9322 20.9454 12.7472 21.025C12.5621 21.1045 12.395 21.2205 12.2557 21.366C12.1164 21.5115 12.0079 21.6836 11.9366 21.8719C11.8653 22.0603 11.8326 22.2611 11.8406 22.4624C11.8485 22.6636 11.8969 22.8612 11.9829 23.0434C12.0689 23.2255 12.1906 23.3885 12.341 23.5226L18.443 29.3696C18.6063 29.5257 18.8028 29.643 19.0178 29.7125C19.2327 29.7821 19.4607 29.8022 19.6845 29.7714C19.9083 29.7405 20.1223 29.6595 20.3104 29.5343C20.4986 29.4091 20.656 29.2431 20.771 29.0486L29.576 14.1416Z" fill="white"/>
</svg>
