<svg width="20" height="20" viewBox="0 0 20 20" fill="none" xmlns="http://www.w3.org/2000/svg">
<path d="M15.1073 8.35259C15.686 8.35261 16.251 8.17646 16.7271 7.84757C17.2033 7.51868 17.568 7.05263 17.7729 6.5114C17.9777 5.97017 18.0129 5.37941 17.8738 4.81767C17.7348 4.25594 17.428 3.74985 16.9943 3.3667C16.5606 2.98356 16.0206 2.74152 15.446 2.67277C14.8714 2.60402 14.2894 2.71182 13.7776 2.98183C13.2658 3.25185 12.8482 3.67128 12.5806 4.18435C12.3129 4.69741 12.2078 5.27981 12.2791 5.85409L7.58613 8.20059C7.18355 7.81238 6.67565 7.55119 6.12569 7.44956C5.57573 7.34794 5.00803 7.41037 4.4933 7.62907C3.97856 7.84778 3.53956 8.2131 3.23096 8.67952C2.92236 9.14594 2.75781 9.69285 2.75781 10.2521C2.75781 10.8114 2.92236 11.3583 3.23096 11.8247C3.53956 12.2911 3.97856 12.6565 4.4933 12.8752C5.00803 13.0939 5.57573 13.1563 6.12569 13.0547C6.67565 12.953 7.18355 12.6919 7.58613 12.3036L12.2791 14.6501C12.196 15.3173 12.3514 15.9923 12.7178 16.5559C13.0843 17.1196 13.6381 17.5356 14.2816 17.7303C14.9251 17.9251 15.6166 17.8861 16.2342 17.6203C16.8517 17.3545 17.3553 16.8789 17.6561 16.2777C17.9569 15.6764 18.0354 14.9882 17.8779 14.3346C17.7203 13.6811 17.3368 13.1042 16.7951 12.7061C16.2534 12.3079 15.5884 12.1141 14.9176 12.1589C14.2468 12.2036 13.6134 12.484 13.1294 12.9506L8.43638 10.6041C8.46513 10.3706 8.46513 10.1345 8.43638 9.90109L13.1294 7.55459C13.6405 8.04859 14.3378 8.35259 15.1073 8.35259Z" fill="#737791"/>
</svg>
