<svg width="42" height="42" viewBox="0 0 42 42" fill="none" xmlns="http://www.w3.org/2000/svg">
<rect width="42" height="42" rx="8" fill="#F3F6FD"/>
<path d="M22.2917 19.6667H28.0917C29.4451 19.6667 30.1219 19.6667 30.6388 19.9301C31.0935 20.1618 31.4632 20.5315 31.6949 20.9862C31.9583 21.5031 31.9583 22.1799 31.9583 23.5333V31.75M22.2917 31.75V13.8667C22.2917 12.5132 22.2917 11.8365 22.0283 11.3195C21.7966 10.8648 21.4269 10.4951 20.9721 10.2634C20.4552 10 19.7785 10 18.425 10H14.075C12.7215 10 12.0448 10 11.5279 10.2634C11.0731 10.4951 10.7034 10.8648 10.4717 11.3195C10.2083 11.8365 10.2083 12.5132 10.2083 13.8667V31.75M33.1667 31.75H9M14.4375 14.8333H18.0625M14.4375 19.6667H18.0625M14.4375 24.5H18.0625" stroke="#4B68FF" stroke-width="2" stroke-linecap="round" stroke-linejoin="round"/>
</svg>
