<svg width="42" height="42" viewBox="0 0 42 42" fill="none" xmlns="http://www.w3.org/2000/svg">
<rect width="42" height="42" rx="8" fill="#F3F6FD"/>
<path d="M30.0058 7.5H25.0058C24.7406 7.5 24.4862 7.60536 24.2987 7.79289C24.1112 7.98043 24.0058 8.23478 24.0058 8.5C24.0058 8.76522 24.1112 9.01957 24.2987 9.20711C24.4862 9.39464 24.7406 9.5 25.0058 9.5H27.592L24.4483 12.6438C23.5252 11.7835 22.4117 11.1538 21.1988 10.8061C19.9858 10.4583 18.7078 10.4025 17.4691 10.643C16.2305 10.8835 15.0663 11.4136 14.0716 12.19C13.0769 12.9665 12.2801 13.9671 11.746 15.1104C11.212 16.2536 10.9559 17.5069 10.9988 18.768C11.0416 20.0291 11.3822 21.2621 11.9926 22.3665C12.603 23.4708 13.466 24.4151 14.5111 25.1222C15.5561 25.8293 16.7537 26.2791 18.0058 26.435V28.5H15.0058C14.7406 28.5 14.4862 28.6054 14.2987 28.7929C14.1112 28.9804 14.0058 29.2348 14.0058 29.5C14.0058 29.7652 14.1112 30.0196 14.2987 30.2071C14.4862 30.3946 14.7406 30.5 15.0058 30.5H18.0058V33.5C18.0058 33.7652 18.1112 34.0196 18.2987 34.2071C18.4862 34.3946 18.7406 34.5 19.0058 34.5C19.271 34.5 19.5254 34.3946 19.7129 34.2071C19.9004 34.0196 20.0058 33.7652 20.0058 33.5V30.5H23.0058C23.271 30.5 23.5254 30.3946 23.7129 30.2071C23.9004 30.0196 24.0058 29.7652 24.0058 29.5C24.0058 29.2348 23.9004 28.9804 23.7129 28.7929C23.5254 28.6054 23.271 28.5 23.0058 28.5H20.0058V26.435C21.3462 26.2676 22.6223 25.763 23.7148 24.9685C24.8072 24.174 25.6804 23.1155 26.2528 21.8919C26.8251 20.6684 27.0779 19.3196 26.9875 17.9718C26.8971 16.6241 26.4664 15.3212 25.7358 14.185L29.0058 10.9138V13.5C29.0058 13.7652 29.1112 14.0196 29.2987 14.2071C29.4862 14.3946 29.7406 14.5 30.0058 14.5C30.271 14.5 30.5254 14.3946 30.7129 14.2071C30.9004 14.0196 31.0058 13.7652 31.0058 13.5V8.5C31.0058 8.23478 30.9004 7.98043 30.7129 7.79289C30.5254 7.60536 30.271 7.5 30.0058 7.5ZM19.0058 24.5C17.8191 24.5 16.6591 24.1481 15.6724 23.4888C14.6857 22.8295 13.9166 21.8925 13.4625 20.7961C13.0084 19.6997 12.8896 18.4933 13.1211 17.3295C13.3526 16.1656 13.924 15.0965 14.7632 14.2574C15.6023 13.4182 16.6714 12.8468 17.8353 12.6153C18.9991 12.3838 20.2055 12.5026 21.3019 12.9567C22.3983 13.4108 23.3353 14.1799 23.9946 15.1666C24.6539 16.1533 25.0058 17.3133 25.0058 18.5C25.0041 20.0908 24.3715 21.616 23.2466 22.7408C22.1218 23.8657 20.5966 24.4983 19.0058 24.5Z" fill="#4B68FF"/>
</svg>
