<svg width="65" height="64" viewBox="0 0 65 64" fill="none" xmlns="http://www.w3.org/2000/svg">
<rect x="0.5" width="64" height="64" rx="32" fill="#4B68FF" fill-opacity="0.14"/>
<path fill-rule="evenodd" clip-rule="evenodd" d="M27.304 20H37.708C41.776 20 44.5 22.856 44.5 27.104V36.9092C44.5 41.1452 41.776 44 37.708 44H27.304C23.236 44 20.5 41.1452 20.5 36.9092V27.104C20.5 22.856 23.236 20 27.304 20ZM32.4881 28.4732C31.9241 28.4732 31.4561 28.004 31.4561 27.4292C31.4561 26.8412 31.9241 26.3732 32.5121 26.3732C33.0881 26.3732 33.5561 26.8412 33.5561 27.4292C33.5561 28.004 33.0881 28.4732 32.4881 28.4732ZM33.5443 36.5369C33.5443 37.1129 33.0763 37.5809 32.4883 37.5809C31.9123 37.5809 31.4443 37.1129 31.4443 36.5369V31.2329C31.4443 30.6557 31.9123 30.1769 32.4883 30.1769C33.0763 30.1769 33.5443 30.6557 33.5443 31.2329V36.5369Z" fill="#7188FE" fill-opacity="0.74"/>
</svg>
