<svg width="138" height="74" viewBox="0 0 138 74" fill="none" xmlns="http://www.w3.org/2000/svg">
<path fill-rule="evenodd" clip-rule="evenodd" d="M110.197 73.9449C117.303 74.6731 124.206 68.0233 130.393 61.6486C135.749 56.1304 139.536 48.4911 142.841 40.3127C146.118 32.2078 148.965 23.8305 149.303 14.8681C149.672 5.05192 148.766 -4.951 144.821 -12.2616C140.718 -19.8648 134.523 -26.2905 127.47 -25.5903C120.684 -24.9166 7.07692 -21.1498 1.21643 -15.256C-3.49546 -10.5173 11.8108 -8.3725 21.3659 16.0777C29.531 36.9711 43.8553 17.1471 53.5539 15.6241C99.4562 8.41596 88.1851 50.388 93.0085 57.8177C97.7817 65.1699 102.926 73.1998 110.197 73.9449Z" fill="url(#paint0_linear_833_4010)" fill-opacity="0.1"/>
<defs>
<linearGradient id="paint0_linear_833_4010" x1="107.488" y1="73.4404" x2="128.109" y2="-25.9587" gradientUnits="userSpaceOnUse">
<stop stop-color="#9099FF" stop-opacity="0"/>
<stop offset="1" stop-color="#90C6FF"/>
</linearGradient>
</defs>
</svg>
