<svg width="56" height="56" viewBox="0 0 56 56" fill="none" xmlns="http://www.w3.org/2000/svg">
<rect width="56" height="56" rx="28" fill="#4B68FF"/>
<path d="M36.7267 25.8239C36.2475 26.3068 35.8806 26.8898 35.6521 27.531C35.4235 28.1723 35.3389 28.8561 35.4043 29.5339L35.3815 29.5111C35.4488 30.309 35.3413 31.1118 35.0668 31.8638C34.7923 32.6157 34.3574 33.2986 33.7924 33.8648C33.2273 34.4309 32.5457 34.8667 31.7951 35.1416C31.0446 35.4166 30.2432 35.5243 29.4469 35.4569L29.4697 35.4797C28.5172 35.3909 27.5605 35.5985 26.73 36.0744C25.8996 36.5503 25.2359 37.2711 24.8294 38.1388C24.4229 39.0064 24.2933 39.9785 24.4585 40.9227C24.6237 41.8667 25.0754 42.7368 25.7522 43.4142C26.429 44.0916 27.2978 44.5434 28.2402 44.708C29.1827 44.8726 30.1528 44.7419 31.0185 44.3339C31.8841 43.9258 32.603 43.2603 33.0772 42.4278C33.5514 41.5954 33.7579 40.6368 33.6684 39.6825L33.6924 39.7053C33.6252 38.9075 33.7325 38.1046 34.007 37.3526C34.2814 36.6007 34.7165 35.9178 35.2815 35.3516C35.8466 34.7855 36.5282 34.3497 37.2787 34.0748C38.0293 33.7998 38.8306 33.6921 39.627 33.7595L39.603 33.7367C40.381 33.8068 41.1642 33.679 41.8799 33.3651C42.5955 33.0512 43.2206 32.5614 43.697 31.9411C44.1733 31.3208 44.4859 30.59 44.6052 29.8165C44.7247 29.043 44.6473 28.2518 44.3803 27.5161C44.1133 26.7806 43.6652 26.1244 43.0777 25.6085C42.4902 25.0926 41.7822 24.7336 41.0193 24.5649C40.2565 24.3962 39.4634 24.4231 38.7137 24.6431C37.9639 24.8632 37.2819 25.2693 36.7305 25.8239H36.7267Z" fill="white"/>
<path d="M27.4004 32.4928L27.3764 32.47C28.0532 32.5383 28.7366 32.4551 29.3775 32.2263C30.0182 31.9976 30.6003 31.6291 31.0815 31.1474C31.5626 30.6657 31.931 30.0827 32.1597 29.4409C32.3885 28.7991 32.4721 28.1145 32.4045 27.4363L32.4285 27.4591C32.3612 26.6612 32.4687 25.8584 32.743 25.1064C33.0175 24.3545 33.4525 23.6716 34.0176 23.1054C34.5827 22.5394 35.2643 22.1035 36.0148 21.8286C36.7654 21.5536 37.5667 21.446 38.363 21.5134L38.339 21.4906C39.2917 21.5802 40.2486 21.3732 41.0795 20.8979C41.9105 20.4225 42.5748 19.702 42.9819 18.8345C43.389 17.967 43.519 16.9948 43.3544 16.0505C43.1898 15.1062 42.7385 14.2357 42.0618 13.5579C41.3853 12.8801 40.5165 12.4278 39.574 12.2629C38.6314 12.0979 37.6611 12.2283 36.7952 12.6361C35.9293 13.044 35.2102 13.7096 34.7357 14.5421C34.2612 15.3745 34.0546 16.3333 34.1441 17.2878L34.1214 17.2637C34.1887 18.0615 34.0815 18.8645 33.8072 19.6166C33.5328 20.3686 33.0978 21.0516 32.5328 21.6179C31.9676 22.1839 31.2859 22.6198 30.5353 22.8947C29.7846 23.1695 28.9832 23.2769 28.1868 23.2094L28.2096 23.2335C27.5328 23.1652 26.8492 23.2484 26.2084 23.4772C25.5677 23.7058 24.9856 24.0744 24.5044 24.5561C24.0233 25.0379 23.655 25.6208 23.4261 26.2626C23.1974 26.9044 23.1139 27.589 23.1815 28.2672L23.1587 28.2444C23.2257 29.0422 23.1182 29.845 22.8437 30.5969C22.5691 31.3486 22.1342 32.0315 21.5691 32.5976C21.0041 33.1636 20.3226 33.5994 19.5722 33.8745C18.8217 34.1495 18.0204 34.2573 17.2242 34.1902L17.2469 34.213C16.2943 34.1233 15.3373 34.3302 14.5064 34.8056C13.6755 35.281 13.0112 36.0015 12.6041 36.869C12.1969 37.7366 12.0668 38.7087 12.2315 39.653C12.3961 40.5973 12.8475 41.4678 13.5241 42.1456C14.2007 42.8235 15.0694 43.2757 16.012 43.4406C16.9545 43.6055 17.9249 43.4752 18.7908 43.0673C19.6566 42.6595 20.3758 41.994 20.8503 41.1615C21.3248 40.3289 21.5313 39.3702 21.4418 38.4158L21.4659 38.4386C21.3986 37.6407 21.5061 36.8379 21.7805 36.0858C22.0549 35.334 22.4899 34.6511 23.0549 34.0849C23.6201 33.5188 24.3016 33.083 25.0521 32.8081C25.8027 32.5331 26.604 32.4254 27.4004 32.4928Z" fill="white"/>
<path d="M18.9269 29.9506C19.4061 29.4677 19.773 28.8848 20.0014 28.2435C20.2298 27.6022 20.314 26.9182 20.2481 26.2405L20.2721 26.2633C20.2049 25.4653 20.3123 24.6621 20.5869 23.91C20.8615 23.1578 21.2967 22.4748 21.8621 21.9086C22.4275 21.3424 23.1093 20.9067 23.8602 20.6319C24.611 20.3571 25.4127 20.2498 26.2092 20.3176L26.1852 20.2948C27.1375 20.3842 28.0942 20.1771 28.9247 19.7018C29.7552 19.2265 30.419 18.5061 30.826 17.6389C31.2329 16.7716 31.3628 15.7998 31.1982 14.8558C31.0336 13.9119 30.5823 13.0418 29.906 12.3642C29.2297 11.6866 28.3612 11.2345 27.419 11.0695C26.4769 10.9046 25.5068 11.0348 24.6413 11.4424C23.7756 11.8501 23.0566 12.5153 22.5822 13.3474C22.1078 14.1794 21.901 15.1379 21.9903 16.092L21.9676 16.0692C22.0348 16.867 21.9273 17.6699 21.6529 18.4218C21.3784 19.1738 20.9435 19.8566 20.3784 20.4228C19.8133 20.9889 19.1317 21.4247 18.3812 21.6996C17.6307 21.9746 16.8293 22.0823 16.033 22.0149L16.0558 22.0377C15.2777 21.9678 14.4946 22.0958 13.779 22.4098C13.0634 22.7238 12.4386 23.2138 11.9623 23.8342C11.486 24.4545 11.1738 25.1854 11.0545 25.9588C10.9351 26.7323 11.0126 27.5235 11.2797 28.2589C11.5468 28.9945 11.9949 29.6505 12.5825 30.1663C13.17 30.6822 13.878 31.041 14.6409 31.2098C15.4037 31.3783 16.1967 31.3514 16.9464 31.1313C17.6961 30.9112 18.3782 30.5051 18.9295 29.9506H18.9269Z" fill="white"/>
</svg>
