<svg width="42" height="42" viewBox="0 0 42 42" fill="none" xmlns="http://www.w3.org/2000/svg">
<rect width="42" height="42" rx="8" fill="#F3F6FD"/>
<path d="M30.97 27.33C30.97 27.69 30.89 28.06 30.72 28.42C30.55 28.78 30.33 29.12 30.04 29.44C29.55 29.98 29.01 30.37 28.4 30.62C27.8 30.87 27.15 31 26.45 31C25.43 31 24.34 30.76 23.19 30.27C22.04 29.78 20.89 29.12 19.75 28.29C18.6 27.45 17.51 26.52 16.47 25.49C15.44 24.45 14.51 23.36 13.68 22.22C12.86 21.08 12.2 19.94 11.72 18.81C11.24 17.67 11 16.58 11 15.54C11 14.86 11.12 14.21 11.36 13.61C11.6 13 11.98 12.44 12.51 11.94C13.15 11.31 13.85 11 14.59 11C14.87 11 15.15 11.06 15.4 11.18C15.66 11.3 15.89 11.48 16.07 11.74L18.39 15.01C18.57 15.26 18.7 15.49 18.79 15.71C18.88 15.92 18.93 16.13 18.93 16.32C18.93 16.56 18.86 16.8 18.72 17.03C18.59 17.26 18.4 17.5 18.16 17.74L17.4 18.53C17.29 18.64 17.24 18.77 17.24 18.93C17.24 19.01 17.25 19.08 17.27 19.16C17.3 19.24 17.33 19.3 17.35 19.36C17.53 19.69 17.84 20.12 18.28 20.64C18.73 21.16 19.21 21.69 19.73 22.22C20.27 22.75 20.79 23.24 21.32 23.69C21.84 24.13 22.27 24.43 22.61 24.61C22.66 24.63 22.72 24.66 22.79 24.69C22.87 24.72 22.95 24.73 23.04 24.73C23.21 24.73 23.34 24.67 23.45 24.56L24.21 23.81C24.46 23.56 24.7 23.37 24.93 23.25C25.16 23.11 25.39 23.04 25.64 23.04C25.83 23.04 26.03 23.08 26.25 23.17C26.47 23.26 26.7 23.39 26.95 23.56L30.26 25.91C30.52 26.09 30.7 26.3 30.81 26.55C30.91 26.8 30.97 27.05 30.97 27.33Z" stroke="#4B68FF" stroke-width="1.5" stroke-miterlimit="10"/>
</svg>
