<svg width="25" height="24" viewBox="0 0 25 24" fill="none" xmlns="http://www.w3.org/2000/svg">
<path fill-rule="evenodd" clip-rule="evenodd" d="M7.304 0H17.708C21.776 0 24.5 2.856 24.5 7.104V16.9092C24.5 21.1452 21.776 24 17.708 24H7.304C3.236 24 0.5 21.1452 0.5 16.9092V7.104C0.5 2.856 3.236 0 7.304 0ZM12.4881 8.47319C11.9241 8.47319 11.4561 8.00399 11.4561 7.42919C11.4561 6.84119 11.9241 6.37319 12.5121 6.37319C13.0881 6.37319 13.5561 6.84119 13.5561 7.42919C13.5561 8.00399 13.0881 8.47319 12.4881 8.47319ZM13.5443 16.5369C13.5443 17.1129 13.0763 17.5809 12.4883 17.5809C11.9123 17.5809 11.4443 17.1129 11.4443 16.5369V11.2329C11.4443 10.6557 11.9123 10.1769 12.4883 10.1769C13.0763 10.1769 13.5443 10.6557 13.5443 11.2329V16.5369Z" fill="#7188FE" fill-opacity="0.74"/>
</svg>
