<svg width="26" height="25" viewBox="0 0 26 25" fill="none" xmlns="http://www.w3.org/2000/svg">
<path fill-rule="evenodd" clip-rule="evenodd" d="M21.1011 4.61455C21.3585 4.5062 21.6403 4.46884 21.917 4.50634C22.1938 4.54383 22.4554 4.65483 22.6747 4.82776C22.894 5.00069 23.063 5.22925 23.164 5.48963C23.265 5.75002 23.2943 6.03271 23.249 6.3083L20.8865 20.6385C20.6573 22.0208 19.1407 22.8135 17.873 22.125C16.8125 21.5489 15.2375 20.6614 13.8209 19.7354C13.1125 19.2718 10.9428 17.7875 11.2094 16.7312C11.4386 15.8281 15.0844 12.4343 17.1678 10.4166C17.9855 9.62392 17.6125 9.16663 16.6469 9.8958C14.249 11.7062 10.399 14.4593 9.12609 15.2343C8.00317 15.9177 7.41775 16.0343 6.71775 15.9177C5.44067 15.7052 4.2563 15.376 3.28963 14.975C1.98338 14.4333 2.04692 12.6375 3.28859 12.1145L21.1011 4.61455Z" fill="#50508F"/>
</svg>
