<svg width="65" height="64" viewBox="0 0 65 64" fill="none" xmlns="http://www.w3.org/2000/svg">
<rect x="0.500977" width="64" height="64" rx="32" fill="#F0F6FF"/>
<path d="M41.501 36.6237V27.376C41.501 27.2429 41.4656 27.1122 41.3984 26.9973C41.3312 26.8825 41.2347 26.7875 41.1187 26.7223L32.8687 22.0817C32.7564 22.0185 32.6298 21.9854 32.501 21.9854C32.3722 21.9854 32.2455 22.0185 32.1333 22.0817L23.8833 26.7223C23.7673 26.7875 23.6708 26.8825 23.6036 26.9973C23.5364 27.1122 23.501 27.2429 23.501 27.376V36.6237C23.501 36.7568 23.5364 36.8875 23.6036 37.0023C23.6708 37.1172 23.7673 37.2121 23.8833 37.2774L32.1333 41.918C32.2455 41.9812 32.3722 42.0143 32.501 42.0143C32.6298 42.0143 32.7564 41.9812 32.8687 41.918L41.1187 37.2774C41.2347 37.2121 41.3312 37.1172 41.3984 37.0023C41.4656 36.8875 41.501 36.7568 41.501 36.6237Z" stroke="#005CE8" stroke-width="1.5" stroke-linecap="round" stroke-linejoin="round"/>
<path d="M37.0968 34.2979V29.4229L28.001 24.4062" stroke="#005CE8" stroke-width="1.5" stroke-linecap="round" stroke-linejoin="round"/>
<path d="M41.3972 26.9963L32.5896 32L23.6045 26.9954" stroke="#005CE8" stroke-width="1.5" stroke-linecap="round" stroke-linejoin="round"/>
<path d="M32.59 32L32.502 42.0145" stroke="#005CE8" stroke-width="1.5" stroke-linecap="round" stroke-linejoin="round"/>
</svg>
