<svg width="56" height="56" viewBox="0 0 56 56" fill="none" xmlns="http://www.w3.org/2000/svg">
<rect x="4" y="4" width="48" height="48" rx="24" fill="#B8FFD9"/>
<rect x="4" y="4" width="48" height="48" rx="24" stroke="#EDFFF5" stroke-width="8"/>
<path d="M25 26.75C23.48 26.75 22.25 25.52 22.25 24C22.25 22.48 23.48 21.25 25 21.25C26.52 21.25 27.75 22.48 27.75 24C27.75 25.52 26.52 26.75 25 26.75ZM25 22.75C24.31 22.75 23.75 23.31 23.75 24C23.75 24.69 24.31 25.25 25 25.25C25.69 25.25 26.25 24.69 26.25 24C26.25 23.31 25.69 22.75 25 22.75Z" fill="#14AE5C"/>
<path d="M31 38.75H25C19.57 38.75 17.25 36.43 17.25 31V25C17.25 19.57 19.57 17.25 25 17.25H29C29.41 17.25 29.75 17.59 29.75 18C29.75 18.41 29.41 18.75 29 18.75H25C20.39 18.75 18.75 20.39 18.75 25V31C18.75 35.61 20.39 37.25 25 37.25H31C35.61 37.25 37.25 35.61 37.25 31V26C37.25 25.59 37.59 25.25 38 25.25C38.41 25.25 38.75 25.59 38.75 26V31C38.75 36.43 36.43 38.75 31 38.75Z" fill="#14AE5C"/>
<path d="M34 24.75C33.9 24.75 33.81 24.73 33.71 24.69C33.43 24.58 33.25 24.3 33.25 24V18C33.25 17.59 33.59 17.25 34 17.25C34.41 17.25 34.75 17.59 34.75 18V22.19L35.47 21.47C35.76 21.18 36.24 21.18 36.53 21.47C36.82 21.76 36.82 22.24 36.53 22.53L34.53 24.53C34.39 24.67 34.2 24.75 34 24.75Z" fill="#14AE5C"/>
<path d="M34.0004 24.7499C33.8104 24.7499 33.6204 24.6799 33.4704 24.5299L31.4704 22.5299C31.1804 22.2399 31.1804 21.7599 31.4704 21.4699C31.7604 21.1799 32.2404 21.1799 32.5304 21.4699L34.5304 23.4699C34.8204 23.7599 34.8204 24.2399 34.5304 24.5299C34.3804 24.6799 34.1904 24.7499 34.0004 24.7499Z" fill="#14AE5C"/>
<path d="M18.6698 35.7001C18.4298 35.7001 18.1898 35.5801 18.0498 35.3701C17.8198 35.0301 17.9098 34.5601 18.2598 34.3301L23.1898 31.0201C24.2698 30.2901 25.7598 30.3801 26.7398 31.2101L27.0698 31.5001C27.5698 31.9301 28.4198 31.9301 28.9098 31.5001L33.0698 27.9301C34.1298 27.0201 35.7998 27.0201 36.8698 27.9301L38.4998 29.3301C38.8098 29.6001 38.8498 30.0701 38.5798 30.3901C38.3098 30.7001 37.8398 30.7401 37.5198 30.4701L35.8898 29.0701C35.3898 28.6401 34.5398 28.6401 34.0398 29.0701L29.8798 32.6401C28.8198 33.5501 27.1498 33.5501 26.0798 32.6401L25.7498 32.3501C25.2898 31.9601 24.5298 31.9201 24.0198 32.2701L19.0898 35.5801C18.9598 35.6601 18.8098 35.7001 18.6698 35.7001Z" fill="#14AE5C"/>
</svg>
